<svg width="25" height="25" viewBox="0 0 25 25" fill="none" xmlns="http://www.w3.org/2000/svg">
<path d="M16.1667 6.25001C16.1667 8.27505 14.525 9.91668 12.5 9.91668C10.4749 9.91668 8.83333 8.27505 8.83333 6.25001C8.83333 4.22496 10.4749 2.58334 12.5 2.58334C14.525 2.58334 16.1667 4.22497 16.1667 6.25001Z" fill="#00ADB5" stroke="#00ADB5"/>
<path d="M2.0153 5.97709L2.01532 5.97709C2.16598 5.93942 2.31869 6.03103 2.35636 6.18173L2.84143 6.06046L2.35636 6.18173L2.75425 7.77326C3.43493 10.496 5.57989 12.6069 8.30731 13.2471L8.36367 13.2603H8.42156H16.6669C18.5914 13.2603 20.2114 14.7008 20.4363 16.6124C20.4363 16.6124 20.4363 16.6124 20.4363 16.6124L21.1128 22.3629C21.131 22.5172 21.0206 22.657 20.8664 22.6751C20.7121 22.6933 20.5723 22.5829 20.5542 22.4287L19.8776 16.6781C19.8776 16.6781 19.8776 16.6781 19.8776 16.678C19.7235 15.3675 18.7996 14.3175 17.5909 13.9573L16.9481 13.7657V14.4365V18.8042C16.9481 19.7525 16.9471 20.4945 16.8693 21.0734C16.7888 21.6722 16.6215 22.1393 16.2555 22.5053C15.8895 22.8712 15.4224 23.0386 14.8237 23.1191L14.8237 23.1191C14.2448 23.1969 13.5028 23.1979 12.5544 23.1978H12.5544H12.446H12.446C11.4976 23.1979 10.7556 23.1969 10.1767 23.1191L10.1767 23.1191C9.57798 23.0386 9.11079 22.8712 8.74484 22.5053C8.37889 22.1394 8.21155 21.6722 8.13105 21.0734L7.63551 21.14L8.13105 21.0734C8.05322 20.4945 8.05223 19.7526 8.05227 18.8041V18.8041V14.1445V13.7729L7.69641 13.6657C4.99536 12.8525 2.89973 10.6744 2.20854 7.90968L1.81066 6.31816C1.81066 6.31816 1.81066 6.31816 1.81066 6.31816C1.77299 6.16746 1.86461 6.01476 2.0153 5.97709Z" fill="#00ADB5" stroke="#00ADB5"/>
</svg>
